<svg width="30" height="30" viewBox="0 0 30 30" fill="none" xmlns="http://www.w3.org/2000/svg">
<g clip-path="url(#clip0_69_10)">
<path d="M19.9991 14.9996V14.9983C19.9991 13.8416 19.598 12.7206 18.8642 11.8265C18.1303 10.9323 17.1091 10.3203 15.9746 10.0946C14.8401 9.86891 13.6625 10.0436 12.6423 10.5888C11.6221 11.1341 10.8226 12.0162 10.3799 13.0848C9.93713 14.1535 9.87863 15.3426 10.2143 16.4495C10.55 17.5565 11.2591 18.5128 12.2209 19.1556C13.1826 19.7983 14.3374 20.0877 15.4886 19.9745C16.6398 19.8613 17.7161 19.3524 18.5341 18.5346C18.9983 18.0859 19.3673 17.5482 19.619 16.9537C19.8707 16.3593 20 15.7201 19.9991 15.0746L19.9979 14.9958V14.9996H19.9991ZM22.6991 14.9996C22.6931 16.7726 22.0729 18.4889 20.944 19.8561C19.8152 21.2234 18.2474 22.1573 16.5075 22.4988C14.7676 22.8403 12.9631 22.5683 11.4012 21.7292C9.83923 20.8901 8.6163 19.5357 7.94052 17.8964C7.26474 16.2572 7.17787 14.4344 7.69469 12.7383C8.2115 11.0422 9.30008 9.57764 10.7752 8.59378C12.2502 7.60992 14.0206 7.1676 15.7851 7.34209C17.5496 7.51658 19.1991 8.2971 20.4529 9.55082C21.1649 10.2417 21.7308 11.0687 22.1169 11.9826C22.5029 12.8965 22.7014 13.8787 22.7004 14.8708L22.6991 15.0071V15.0008V14.9996ZM24.8079 6.99207V6.99457C24.808 7.41102 24.6638 7.81463 24.3997 8.13663C24.1356 8.45863 23.768 8.67909 23.3596 8.76046C22.9512 8.84183 22.5272 8.77906 22.1598 8.58286C21.7925 8.38665 21.5046 8.06915 21.3451 7.68445C21.1856 7.29974 21.1645 6.87165 21.2853 6.4731C21.406 6.07455 21.6613 5.73022 22.0075 5.49876C22.3537 5.26731 22.7694 5.16306 23.1839 5.20378C23.5983 5.2445 23.9858 5.42767 24.2804 5.72207C24.6004 6.03582 24.7991 6.47332 24.7991 6.95707V6.99332V6.99207H24.8079ZM15.0079 2.69207L13.5141 2.68207C12.6091 2.6754 11.9221 2.6754 11.4529 2.68207C10.9837 2.68874 10.3554 2.70832 9.56789 2.74082C8.83664 2.76582 8.14289 2.83832 7.46414 2.95332L7.55539 2.94082C7.02414 3.02832 6.55289 3.15332 6.10164 3.31957L6.15539 3.30207C5.5179 3.55834 4.93817 3.93967 4.45041 4.42356C3.96265 4.90746 3.57672 5.48414 3.31539 6.11957L3.30289 6.15332C3.14245 6.59246 3.02359 7.0457 2.94789 7.50707L2.94164 7.55332C2.83046 8.21014 2.76406 8.87375 2.74289 9.53957L2.74164 9.56582C2.70914 10.3542 2.68956 10.9825 2.68289 11.4508C2.67622 11.9192 2.67622 12.6062 2.68289 13.5121C2.68956 14.4179 2.69289 14.9158 2.69289 15.0058C2.69289 15.0958 2.68956 15.5937 2.68289 16.4996C2.67622 17.4054 2.67622 18.0925 2.68289 18.5608C2.68956 19.0292 2.70914 19.6575 2.74164 20.4458C2.76664 21.1771 2.83914 21.8708 2.95414 22.5496L2.94164 22.4583C3.02914 22.9896 3.15414 23.4608 3.32039 23.9121L3.30289 23.8583C3.55916 24.4958 3.94049 25.0755 4.42439 25.5633C4.90828 26.0511 5.48496 26.437 6.12039 26.6983L6.15414 26.7108C6.55164 26.8596 7.02289 26.9846 7.50789 27.0658L7.55414 27.0721C8.14039 27.1746 8.83414 27.2471 9.53914 27.2708L9.56539 27.2721C10.3537 27.3046 10.9821 27.3242 11.4504 27.3308C11.9187 27.3375 12.6058 27.3375 13.5116 27.3308L14.9966 27.3008L16.4904 27.3108C17.3954 27.3175 18.0825 27.3175 18.5516 27.3108C19.0208 27.3042 19.6491 27.2846 20.4366 27.2521C21.1679 27.2271 21.8616 27.1546 22.5404 27.0396L22.4491 27.0521C22.9804 26.9646 23.4516 26.8396 23.9029 26.6733L23.8491 26.6908C24.4866 26.4346 25.0664 26.0532 25.5541 25.5693C26.0419 25.0854 26.4278 24.5088 26.6891 23.8733L26.7016 23.8396C26.8504 23.4421 26.9754 22.9708 27.0566 22.4858L27.0629 22.4396C27.1654 21.8533 27.2379 21.1596 27.2616 20.4546L27.2629 20.4283C27.2954 19.64 27.315 19.0117 27.3216 18.5433C27.3283 18.075 27.3283 17.3879 27.3216 16.4821C27.315 15.5762 27.3116 15.0783 27.3116 14.9883C27.3116 14.8983 27.315 14.4004 27.3216 13.4946C27.3283 12.5887 27.3283 11.9017 27.3216 11.4333C27.315 10.965 27.2954 10.3367 27.2629 9.54832C27.2379 8.81707 27.1654 8.12332 27.0504 7.44457L27.0629 7.53582C26.9836 7.0402 26.8568 6.55337 26.6841 6.08207L26.7016 6.13582C26.4454 5.49833 26.064 4.9186 25.5801 4.43084C25.0962 3.94308 24.5196 3.55715 23.8841 3.29582L23.8504 3.28332C23.4112 3.12288 22.958 3.00402 22.4966 2.92832L22.4504 2.92207C21.794 2.81095 21.1308 2.74454 20.4654 2.72332L20.4391 2.72207C19.6508 2.68957 19.0225 2.66999 18.5541 2.66332C18.0858 2.65665 17.3987 2.65665 16.4929 2.66332L15.0079 2.69207ZM29.9991 14.9996C29.9991 17.9812 29.9658 20.045 29.8991 21.1908C29.9582 22.352 29.7727 23.5127 29.3545 24.5977C28.9363 25.6826 28.2949 26.6676 27.4717 27.4887C26.6485 28.3099 25.662 28.949 24.576 29.3645C23.4901 29.78 22.329 29.9627 21.1679 29.9008L21.1879 29.9021C20.0421 29.9687 17.9783 30.0021 14.9966 30.0021C12.015 30.0021 9.95122 29.9687 8.80539 29.9021C7.64416 29.9612 6.48348 29.7756 5.39855 29.3574C4.31362 28.9393 3.32865 28.2978 2.50748 27.4746C1.68631 26.6515 1.04726 25.6649 0.631729 24.579C0.216202 23.493 0.0334755 22.3319 0.0953906 21.1708L0.0941406 21.1908C0.027474 20.045 -0.00585938 17.9812 -0.00585938 14.9996C-0.00585938 12.0179 0.027474 9.95415 0.0941406 8.80832C0.0350549 7.64709 0.22061 6.48641 0.638782 5.40148C1.05695 4.31655 1.69841 3.33158 2.52159 2.51041C3.34476 1.68924 4.33129 1.05019 5.41723 0.634658C6.50318 0.219132 7.66431 0.0364052 8.82539 0.0983203L8.80539 0.0970703C9.95122 0.0304036 12.015 -0.00292969 14.9966 -0.00292969C17.9783 -0.00292969 20.0421 0.0304036 21.1879 0.0970703C22.3491 0.0379846 23.5098 0.22354 24.5947 0.641712C25.6797 1.05988 26.6646 1.70134 27.4858 2.52452C28.307 3.34769 28.946 4.33421 29.3616 5.42016C29.7771 6.50611 29.9598 7.66724 29.8979 8.82832L29.8991 8.80832C29.9658 9.95332 29.9991 12.0171 29.9991 14.9996Z" fill="white"/>
</g>
<defs>
<clipPath id="clip0_69_10">
<rect width="30" height="30" fill="white"/>
</clipPath>
</defs>
</svg>
