<svg width="114" height="149" viewBox="0 0 114 149" fill="none" xmlns="http://www.w3.org/2000/svg">
<g clip-path="url(#clip0_104_197)">
<path d="M2.80408 145.34C2.00015 145.066 1.29427 144.564 0.77354 143.895C0.278718 143.261 0.00690721 142.483 0 141.68L2.6107 141.198C2.66734 141.649 2.83328 142.079 3.09416 142.451C3.3527 142.84 3.7235 143.142 4.15776 143.317C4.61806 143.506 5.11053 143.604 5.60814 143.606C6.03689 143.655 6.47092 143.589 6.86515 143.414C7.21728 143.336 7.52754 143.13 7.73537 142.836C7.83287 142.733 7.90876 142.612 7.95858 142.48C8.0084 142.347 8.03113 142.207 8.02545 142.065C8.01561 141.88 7.96761 141.699 7.88443 141.534C7.80125 141.368 7.68468 141.221 7.54199 141.102L5.99492 140.524L4.25446 140.235C3.18982 140.093 2.18561 139.66 1.3537 138.983C1.02878 138.695 0.77315 138.337 0.605772 137.937C0.438393 137.537 0.363551 137.105 0.386777 136.672C0.354814 135.937 0.595803 135.217 1.06362 134.649C1.43545 133.999 2.01372 133.491 2.70738 133.204C3.51008 132.897 4.36134 132.733 5.22138 132.723C6.01995 132.722 6.80997 132.886 7.54199 133.204C8.19089 133.475 8.78168 133.868 9.28245 134.36C9.69654 134.928 9.96235 135.59 10.056 136.286L7.4453 136.768C7.40263 136.419 7.26931 136.087 7.05853 135.805C6.87033 135.511 6.60198 135.277 6.28499 135.131C5.59976 134.872 4.84299 134.872 4.15776 135.131C3.89639 135.234 3.66415 135.4 3.48092 135.612C3.32711 135.838 3.2586 136.111 3.28754 136.383C3.27143 136.548 3.29858 136.715 3.36636 136.867C3.43413 137.019 3.54022 137.151 3.6743 137.25C4.0575 137.572 4.52897 137.774 5.028 137.827L6.76845 138.116C7.90074 138.223 8.97673 138.658 9.86261 139.368C10.1725 139.668 10.418 140.028 10.5842 140.425C10.7505 140.823 10.8339 141.25 10.8295 141.68C10.8578 142.473 10.6196 143.253 10.1527 143.895C9.67123 144.522 9.03957 145.019 8.31553 145.34C7.44812 145.656 6.53188 145.819 5.60814 145.822C4.65229 145.827 3.70304 145.664 2.80408 145.34V145.34Z" fill="#A50000"/>
<path d="M11.7964 136.575H13.9236L14.3104 138.116H14.4071C14.6924 137.559 15.1276 137.093 15.6641 136.768C16.1897 136.453 16.7913 136.287 17.4045 136.286C18.1243 136.271 18.832 136.472 19.4351 136.864C20.0669 137.301 20.5682 137.9 20.8854 138.598C21.2123 139.359 21.3769 140.178 21.3689 141.006C21.3664 141.832 21.2022 142.65 20.8854 143.414C20.5661 144.084 20.0634 144.652 19.4351 145.051C18.8722 145.393 18.2325 145.59 17.5741 145.623C16.9156 145.657 16.2591 145.526 15.6641 145.244C15.151 144.891 14.7219 144.431 14.4071 143.895V143.895V149H11.7964V136.575ZM17.6946 143.125C18.0717 142.938 18.3773 142.634 18.5648 142.258C18.8243 141.443 18.8243 140.568 18.5648 139.754C18.3577 139.367 18.0589 139.036 17.6946 138.791C17.3457 138.58 16.9414 138.48 16.5343 138.502C16.1303 138.507 15.7331 138.606 15.374 138.791C15.0646 139.067 14.8033 139.392 14.6005 139.754C14.4119 140.144 14.314 140.572 14.314 141.006C14.314 141.439 14.4119 141.867 14.6005 142.258C14.7802 142.608 15.0464 142.906 15.374 143.125C15.7262 143.34 16.1231 143.471 16.5343 143.51C16.9516 143.503 17.3568 143.369 17.6946 143.125V143.125Z" fill="#A50000"/>
<path d="M24.5599 145.147C23.8277 144.788 23.2212 144.218 22.8194 143.51C22.4226 142.735 22.2234 141.875 22.2393 141.006C22.2151 140.135 22.4148 139.273 22.8194 138.502C23.1936 137.773 23.8082 137.195 24.5599 136.864C25.365 136.449 26.2647 136.25 27.1706 136.286C28.0435 136.271 28.9069 136.469 29.6846 136.864C30.4363 137.195 31.0508 137.773 31.425 138.502C31.8296 139.273 32.0294 140.135 32.0052 141.006C32.0211 141.875 31.8218 142.735 31.425 143.51C31.0232 144.218 30.4167 144.788 29.6846 145.147C28.9069 145.543 28.0435 145.741 27.1706 145.725C26.2647 145.762 25.365 145.563 24.5599 145.147V145.147ZM28.3309 143.317C28.6952 143.072 28.9939 142.741 29.2011 142.354C29.3988 141.932 29.498 141.471 29.4912 141.006C29.5091 140.539 29.4094 140.076 29.2011 139.657C28.9939 139.271 28.6952 138.94 28.3309 138.694C27.9761 138.499 27.576 138.399 27.1706 138.405C26.733 138.386 26.2986 138.486 25.9136 138.694C25.5492 138.94 25.2505 139.271 25.0433 139.657C24.835 140.076 24.7353 140.539 24.7533 141.006C24.7465 141.471 24.8456 141.932 25.0433 142.354C25.2505 142.741 25.5492 143.072 25.9136 143.317C26.2986 143.525 26.733 143.625 27.1706 143.606C27.576 143.613 27.9761 143.513 28.3309 143.317Z" fill="#A50000"/>
<path d="M39.4503 136.672C39.8658 136.928 40.2008 137.295 40.4172 137.731C40.6934 138.236 40.8583 138.795 40.9007 139.368L38.6767 139.946C38.6665 139.501 38.5326 139.068 38.29 138.694C38.1658 138.565 38.0152 138.464 37.8484 138.397C37.6816 138.331 37.5025 138.301 37.3231 138.309C37.0103 138.315 36.7069 138.416 36.4528 138.598L35.8727 139.368C35.7542 139.776 35.6892 140.197 35.6793 140.621V145.436H33.0686V136.575H35.1958L35.5826 138.02C35.798 137.503 36.1697 137.065 36.6462 136.768C37.0646 136.455 37.5735 136.286 38.0966 136.286C38.5778 136.265 39.0529 136.401 39.4503 136.672Z" fill="#A50000"/>
<path d="M44.4784 145.34C43.9523 145.089 43.5143 144.687 43.2215 144.184C42.991 143.667 42.8598 143.112 42.8347 142.547V138.598H41.1909V136.575H42.8347V134.167L45.4454 133.59V136.575H49.023V138.598H45.4454V142.162C45.4647 142.428 45.5302 142.688 45.6388 142.932L46.1222 143.51L46.799 143.703C47.1831 143.677 47.552 143.544 47.8627 143.317C48.1903 143.099 48.4565 142.8 48.6362 142.451L49.5064 143.992C49.2474 144.543 48.8026 144.986 48.2494 145.244C47.6159 145.55 46.9229 145.714 46.2189 145.725C45.6142 145.759 45.0119 145.626 44.4784 145.34Z" fill="#A50000"/>
<path d="M50.6667 133.108H53.5675V142.932H58.6922V145.436H50.6667V133.108Z" fill="#A50000"/>
<path d="M59.949 134.938C59.6551 134.661 59.4815 134.281 59.4656 133.878C59.4726 133.611 59.5387 133.348 59.659 133.108C59.8002 132.87 59.9998 132.671 60.2391 132.53L61.0127 132.337C61.43 132.344 61.8351 132.479 62.173 132.723C62.3129 132.879 62.4194 133.062 62.4859 133.261C62.5524 133.46 62.5775 133.67 62.5597 133.878C62.598 134.151 62.5287 134.427 62.3663 134.649L61.8829 135.227H61.0127C60.6338 135.274 60.2516 135.17 59.949 134.938V134.938ZM59.7557 136.575H62.3663V145.436H59.7557V136.575Z" fill="#A50000"/>
<path d="M63.2366 136.575H65.944L68.1679 143.317L70.3918 136.575H73.0992L69.8117 145.436H66.6208L63.2366 136.575Z" fill="#A50000"/>
<path d="M75.6133 145.147C74.8485 144.754 74.2114 144.153 73.7762 143.414C73.3379 142.651 73.1047 141.788 73.0993 140.91C73.0831 140.071 73.2828 139.242 73.6795 138.502C74.1093 137.816 74.7086 137.253 75.4199 136.864C76.1947 136.461 77.0601 136.262 77.9339 136.286C78.7325 136.286 79.5225 136.45 80.2545 136.768C80.9385 137.159 81.5058 137.724 81.8983 138.405C82.2911 139.112 82.4911 139.909 82.4785 140.717C82.4926 140.914 82.4594 141.112 82.3818 141.295V141.68H75.8067C75.8133 142.096 75.9484 142.499 76.1935 142.836C76.4489 143.143 76.783 143.376 77.1604 143.51C77.5499 143.706 77.9811 143.805 78.4174 143.799C78.9473 143.807 79.4733 143.708 79.9644 143.51C80.4025 143.294 80.771 142.961 81.0281 142.547L82.5751 143.703C82.3713 144.118 82.0734 144.481 81.7049 144.762C81.2197 145.076 80.7008 145.334 80.1578 145.533L78.4174 145.725C77.4505 145.75 76.4909 145.552 75.6133 145.147V145.147ZM79.7711 140.139C79.7796 139.765 79.6788 139.397 79.481 139.08C79.3326 138.789 79.0956 138.553 78.8041 138.405C78.5501 138.224 78.2466 138.123 77.9339 138.116C77.5587 138.108 77.1892 138.208 76.8703 138.405C76.5982 138.578 76.3673 138.809 76.1935 139.08C75.9663 139.389 75.8322 139.756 75.8067 140.139H79.7711Z" fill="#A50000"/>
<path d="M83.9287 133.108H92.3409V135.612H86.8295V138.502H91.2773V140.717H86.8295V145.436H83.9287V133.108Z" fill="#A50000"/>
<path d="M93.9848 145.34C93.5236 145.166 93.1213 144.865 92.8245 144.473C92.5641 144.072 92.4295 143.602 92.4377 143.125C92.4211 142.748 92.5011 142.374 92.6703 142.037C92.8395 141.7 93.0923 141.411 93.4046 141.198C94.2084 140.581 95.1934 140.242 96.2087 140.235L98.0458 140.043C98.2392 139.946 98.4326 139.946 98.5293 139.754C98.6292 139.646 98.6963 139.513 98.7227 139.368C98.719 139.131 98.6523 138.898 98.5293 138.694C98.3702 138.521 98.1711 138.388 97.9492 138.309H97.0789L96.112 138.502C95.8231 138.605 95.5823 138.811 95.4352 139.08C95.3377 139.182 95.2617 139.303 95.2119 139.436C95.1621 139.568 95.1394 139.709 95.1451 139.85L92.6311 139.368C92.7137 138.804 92.9475 138.271 93.3079 137.827C93.6964 137.318 94.2387 136.947 94.855 136.768C96.2926 136.253 97.8652 136.253 99.3028 136.768C99.9236 136.995 100.439 137.44 100.753 138.02C101.116 138.559 101.286 139.203 101.237 139.85V143.317C101.243 143.495 101.312 143.666 101.43 143.799C101.43 143.895 101.527 143.895 101.72 143.895H102.01C102.107 143.799 102.204 143.799 102.3 143.606L103.074 145.051C102.766 145.319 102.403 145.516 102.01 145.629L100.753 145.822C100.419 145.852 100.083 145.785 99.7863 145.629L99.1094 145.147C99.0119 145.045 98.9361 144.924 98.8862 144.791C98.8364 144.659 98.8137 144.518 98.8194 144.377V144.184C98.3928 144.863 97.7437 145.373 96.9822 145.629C96.5827 145.785 96.1534 145.851 95.7252 145.822C95.115 145.8 94.5186 145.635 93.9848 145.34V145.34ZM97.6591 143.606C97.986 143.429 98.2546 143.161 98.4326 142.836C98.6283 142.553 98.7298 142.216 98.7227 141.873V141.487L96.8855 141.68C96.3746 141.664 95.8703 141.798 95.4352 142.065C95.2971 142.144 95.1808 142.256 95.0965 142.39C95.0121 142.525 94.9624 142.678 94.9517 142.836C94.9517 143.125 95.1451 143.317 95.4352 143.51C95.784 143.72 96.1883 143.821 96.5954 143.799L97.6591 143.606Z" fill="#A50000"/>
<path d="M111.099 136.672C111.515 136.928 111.85 137.295 112.066 137.731C112.34 138.232 112.474 138.798 112.453 139.368V145.436H109.842V140.139C109.86 139.93 109.835 139.72 109.768 139.521C109.702 139.323 109.596 139.14 109.456 138.983C109.322 138.809 109.144 138.672 108.94 138.588C108.736 138.503 108.514 138.473 108.295 138.502L107.328 138.694C107.024 138.9 106.761 139.161 106.555 139.465C106.435 139.806 106.37 140.163 106.361 140.524V145.436H103.751V136.575H105.975L106.361 138.116C106.685 137.556 107.152 137.09 107.715 136.768C108.241 136.453 108.842 136.287 109.456 136.286C110.024 136.301 110.584 136.433 111.099 136.672V136.672Z" fill="#A50000"/>
<path d="M22.2391 116.831C21.7137 116.846 21.1998 116.675 20.7887 116.349C20.2758 115.966 19.9367 115.395 19.8461 114.763C19.7554 114.131 19.9206 113.489 20.3052 112.978C23.0126 109.222 47.7658 75.8966 60.7226 73.6813C67.2976 72.6218 74.5495 75.5113 80.061 81.5792C85.5724 87.6471 87.0228 92.7518 85.8625 97.2786C83.6386 105.658 70.8752 115.29 69.4249 116.349C68.912 116.732 68.2673 116.897 67.6326 116.806C66.9979 116.716 66.4253 116.378 66.0406 115.867C65.837 115.62 65.6873 115.333 65.6009 115.024C65.5145 114.716 65.4934 114.393 65.5388 114.076C65.5843 113.759 65.6953 113.455 65.8649 113.183C66.0345 112.911 66.259 112.677 66.5241 112.496C70.1017 109.896 79.6742 101.805 81.1246 96.0265C81.8981 93.2334 79.9643 88.6102 76.4834 84.8539C73.0025 81.0976 66.5241 77.6303 61.5928 78.4008C52.2137 80.0381 31.4248 105.947 24.1729 115.867C23.9595 116.179 23.6698 116.43 23.3314 116.599C22.993 116.767 22.6171 116.847 22.2391 116.831Z" fill="#A50000"/>
<path d="M59.1756 67.1319C57.1265 67.1338 55.1175 66.5668 53.374 65.4945C42.9313 59.1377 37.3232 35.733 37.0331 34.7699C36.892 34.144 37.0064 33.488 37.3509 32.9461C37.6954 32.4043 38.2419 32.0209 38.8702 31.8804C39.4985 31.7399 40.1571 31.8538 40.7011 32.197C41.2451 32.5402 41.63 33.0846 41.771 33.7104C43.2214 39.8746 48.6361 56.9224 55.888 61.3529C56.5574 61.8135 57.3165 62.1287 58.1161 62.278C58.9157 62.4273 59.7379 62.4075 60.5293 62.2198C73.3893 58.9451 107.425 20.9968 109.262 15.2178C109.482 14.6153 109.925 14.1196 110.501 13.8329C111.076 13.5462 111.74 13.4903 112.356 13.6768C112.954 13.8755 113.45 14.2988 113.739 14.8565C114.028 15.4142 114.087 16.0622 113.903 16.6626C111.583 23.6936 76.1934 63.1829 61.7862 66.8429C60.9293 67.0342 60.0538 67.1311 59.1756 67.1319Z" fill="#A50000"/>
<path d="M62.9467 50.4693C60.4988 50.4693 58.1059 49.7462 56.0706 48.3916C54.0353 47.0369 52.4489 45.1115 51.5122 42.8588C50.5754 40.6061 50.3303 38.1272 50.8079 35.7358C51.2854 33.3443 52.4642 31.1476 54.1951 29.4234C55.926 27.6993 58.1313 26.5251 60.5321 26.0494C62.9329 25.5737 65.4214 25.8179 67.683 26.751C69.9445 27.6841 71.8775 29.2643 73.2374 31.2916C74.5974 33.319 75.3232 35.7026 75.3232 38.1409C75.3232 39.7599 75.0031 41.363 74.3811 42.8588C73.7591 44.3545 72.8475 45.7136 71.6982 46.8584C70.549 48.0032 69.1846 48.9113 67.683 49.5309C66.1814 50.1504 64.572 50.4693 62.9467 50.4693V50.4693ZM62.9467 30.6283C61.455 30.6283 59.9968 31.0689 58.7566 31.8944C57.5163 32.7199 56.5496 33.8932 55.9788 35.266C55.4079 36.6387 55.2586 38.1492 55.5496 39.6066C55.8406 41.0639 56.5589 42.4025 57.6137 43.4531C58.6684 44.5038 60.0123 45.2193 61.4753 45.5092C62.9383 45.799 64.4547 45.6503 65.8328 45.0817C67.211 44.513 68.3889 43.5501 69.2176 42.3147C70.0463 41.0793 70.4886 39.6268 70.4886 38.1409C70.4886 36.1485 69.6941 34.2376 68.2797 32.8287C66.8653 31.4198 64.9469 30.6283 62.9467 30.6283V30.6283Z" fill="#A50000"/>
<path d="M93.7913 19.841C99.2917 19.841 103.751 15.3994 103.751 9.92049C103.751 4.44156 99.2917 0 93.7913 0C88.291 0 83.832 4.44156 83.832 9.92049C83.832 15.3994 88.291 19.841 93.7913 19.841Z" fill="#A50000"/>
</g>
<defs>
<clipPath id="clip0_104_197">
<rect width="114" height="149" fill="white"/>
</clipPath>
</defs>
</svg>
