<svg width="68" height="68" viewBox="0 0 68 68" fill="none" xmlns="http://www.w3.org/2000/svg">
<circle cx="34" cy="34" r="32.5" stroke="white" stroke-width="3"/>
<path fill-rule="evenodd" clip-rule="evenodd" d="M34.9995 28.9671C38.2236 28.9671 40.8372 26.3535 40.8372 23.1294C40.8372 19.9054 38.2236 17.2918 34.9995 17.2918C31.7755 17.2918 29.1619 19.9054 29.1619 23.1294C29.1619 26.3535 31.7755 28.9671 34.9995 28.9671ZM34.9995 34.8048C41.4476 34.8048 46.6749 29.5775 46.6749 23.1294C46.6749 16.6813 41.4476 11.4541 34.9995 11.4541C28.5514 11.4541 23.3242 16.6813 23.3242 23.1294C23.3242 29.5775 28.5514 34.8048 34.9995 34.8048Z" fill="white"/>
<path fill-rule="evenodd" clip-rule="evenodd" d="M35.0002 37.7234C27.9331 37.7234 22.0392 42.7466 20.6942 49.4174C20.3756 50.9976 19.0992 52.3176 17.4872 52.3176C15.8752 52.3176 14.5465 51.0033 14.774 49.4074C16.1866 39.5016 24.704 31.8857 35.0002 31.8857C45.2964 31.8857 53.8137 39.5016 55.2263 49.4074C55.4539 51.0033 54.1252 52.3176 52.5132 52.3176C50.9011 52.3176 49.6248 50.9976 49.3062 49.4174C47.9612 42.7466 42.0673 37.7234 35.0002 37.7234Z" fill="white"/>
</svg>
