<svg width="30" height="30" viewBox="0 0 30 30" fill="none" xmlns="http://www.w3.org/2000/svg">
<path d="M15.0082 23.765H14.9832C14.9057 23.765 7.15199 23.75 5.19574 23.2188C4.66716 23.0764 4.18526 22.7976 3.79829 22.4104C3.41131 22.0232 3.13283 21.5412 2.99074 21.0125C2.63897 19.028 2.4691 17.0154 2.48324 15C2.47416 12.9813 2.64862 10.9659 3.00449 8.97875C3.1506 8.44922 3.43036 7.96613 3.81693 7.57584C4.20349 7.18556 4.68388 6.90118 5.21199 6.75C7.11449 6.25 14.6545 6.25 14.9745 6.25H15.0007C15.0795 6.25 22.8532 6.265 24.7895 6.79625C25.8632 7.0875 26.702 7.92625 26.992 9C27.3545 10.9925 27.5257 13.0138 27.5007 15.0387C27.5095 17.055 27.3346 19.0679 26.9782 21.0525C26.8343 21.5806 26.5547 22.0618 26.1672 22.4484C25.7798 22.835 25.2979 23.1135 24.7695 23.2562C22.8695 23.76 15.3282 23.765 15.0082 23.765ZM12.5082 11.2563L12.502 18.7563L19.017 15.0063L12.5082 11.2563Z" fill="white"/>
</svg>
